<?xml version="1.0" encoding="iso-8859-1"?>
<!-- Generator: Adobe Illustrator 21.0.0, SVG Export Plug-In . SVG Version: 6.00 Build 0)  -->
<svg xmlns="http://www.w3.org/2000/svg" xmlns:xlink="http://www.w3.org/1999/xlink" version="1.1" id="Capa_1" x="0px" y="0px" viewBox="0 0 512.002 512.002" style="enable-background:new 0 0 512.002 512.002;" xml:space="preserve" width="512" height="512">
<g>
	<g>
		<path style="fill-rule:evenodd;clip-rule:evenodd;fill:#FF836C;" d="M176.001,130.002c11.046,0,20-8.954,20-20    c0-11.046-8.954-20-20-20c-0.655,0-1.303,0.033-1.943,0.094c0.495-0.409,0.977-0.844,1.44-1.307    c7.811-7.811,7.811-20.474,0-28.284c-7.81-7.811-20.474-7.811-28.284,0c-0.464,0.463-0.898,0.944-1.307,1.44    c0.062-0.639,0.094-1.287,0.094-1.943c0-11.046-8.954-20-20-20c-11.046,0-20,8.954-20,20c0,0.656,0.032,1.303,0.094,1.943    c-0.409-0.496-0.844-0.977-1.307-1.44c-7.811-7.811-20.474-7.811-28.284,0c-7.811,7.81-7.811,20.474,0,28.284    c0.463,0.463,0.945,0.898,1.44,1.307c-0.639-0.062-1.287-0.094-1.943-0.094c-11.046,0-20,8.954-20,20c0,11.046,8.954,20,20,20    c0.655,0,1.303-0.033,1.943-0.094c-0.495,0.409-0.977,0.844-1.44,1.307c-7.811,7.811-7.811,20.474,0,28.284    c7.81,7.811,20.474,7.811,28.284,0c0.463-0.464,0.898-0.945,1.307-1.44c-0.062,0.639-0.094,1.287-0.094,1.943    c0,11.046,8.954,20,20,20c11.046,0,20-8.954,20-20c0-0.655-0.033-1.303-0.094-1.943c0.409,0.495,0.844,0.977,1.307,1.44    c7.811,7.811,20.474,7.811,28.284,0c7.811-7.81,7.811-20.474,0-28.284c-0.464-0.464-0.945-0.899-1.44-1.307    C174.698,129.969,175.346,130.002,176.001,130.002L176.001,130.002z M126.001,90.001c11.046,0,20,8.954,20,20    c0,11.046-8.954,20-20,20c-11.046,0-20-8.954-20-20C106.001,98.956,114.956,90.001,126.001,90.001z"/>
		<circle style="fill-rule:evenodd;clip-rule:evenodd;fill:#F9F9F9;" cx="126.001" cy="110.001" r="20"/>
		<circle style="fill-rule:evenodd;clip-rule:evenodd;fill:#F9F9F9;" cx="256.001" cy="80" r="20"/>
		<path style="fill-rule:evenodd;clip-rule:evenodd;fill:#F9F9F9;" d="M256.001,100c-11.046,0-20-8.954-20-20s8.954-20,20-20    c11.046,0,20,8.954,20,20S267.047,100,256.001,100L256.001,100z M276.001,30c0-11.046-8.954-20-20-20c-11.046,0-20,8.954-20,20    c0,0.656,0.032,1.303,0.094,1.943c-0.409-0.496-0.844-0.977-1.307-1.44c-7.811-7.811-20.474-7.811-28.284,0    c-7.811,7.81-7.811,20.474,0,28.284c0.463,0.463,0.945,0.899,1.44,1.307c-0.639-0.062-1.287-0.094-1.943-0.094    c-11.046,0-20,8.954-20,20c0,11.046,8.954,20,20,20c0.655,0,1.303-0.033,1.943-0.094c-0.495,0.408-0.977,0.844-1.44,1.307    c-7.811,7.811-7.811,20.474,0,28.284c7.81,7.811,20.474,7.811,28.284,0c0.463-0.463,0.898-0.945,1.307-1.44    c-0.062,0.639-0.094,1.287-0.094,1.942c0,11.046,8.954,20,20,20c11.046,0,20-8.954,20-20c0-0.655-0.033-1.303-0.094-1.942    c0.409,0.495,0.844,0.977,1.307,1.44c7.811,7.811,20.474,7.811,28.284,0c7.811-7.81,7.811-20.474,0-28.284    c-0.464-0.464-0.945-0.899-1.44-1.307c0.639,0.061,1.287,0.094,1.943,0.094c11.046,0,20-8.954,20-20c0-11.046-8.954-20-20-20    c-0.655,0-1.303,0.033-1.943,0.094c0.496-0.409,0.977-0.844,1.44-1.307c7.811-7.811,7.811-20.474,0-28.284    c-7.81-7.811-20.474-7.811-28.284,0c-0.464,0.463-0.898,0.944-1.307,1.44C275.969,31.304,276.001,30.656,276.001,30z"/>
		<path style="fill-rule:evenodd;clip-rule:evenodd;fill:#FFE192;" d="M336.503,60.504c-7.811,7.81-7.811,20.474,0,28.284    c0.463,0.463,0.945,0.898,1.44,1.307c-0.639-0.062-1.287-0.094-1.943-0.094c-11.046,0-20,8.954-20,20c0,11.046,8.954,20,20,20    c0.655,0,1.303-0.033,1.943-0.094c-0.495,0.409-0.977,0.844-1.44,1.307c-7.811,7.811-7.811,20.474,0,28.284    c7.81,7.811,20.474,7.811,28.284,0c0.463-0.464,0.898-0.945,1.307-1.44c-0.062,0.639-0.094,1.287-0.094,1.943    c0,11.046,8.954,20,20,20c11.046,0,20-8.954,20-20c0-0.655-0.033-1.303-0.094-1.943c0.409,0.495,0.844,0.977,1.307,1.44    c7.811,7.811,20.474,7.811,28.284,0c7.811-7.81,7.811-20.474,0-28.284c-0.463-0.464-0.945-0.899-1.44-1.307    c0.639,0.062,1.287,0.094,1.943,0.094c11.046,0,20-8.954,20-20c0-11.046-8.954-20-20-20c-0.655,0-1.303,0.033-1.943,0.094    c0.495-0.409,0.977-0.844,1.44-1.307c7.811-7.811,7.811-20.474,0-28.284c-7.81-7.811-20.474-7.811-28.284,0    c-0.464,0.463-0.898,0.944-1.307,1.44c0.062-0.639,0.094-1.287,0.094-1.943c0-11.046-8.954-20-20-20c-11.046,0-20,8.954-20,20    c0,0.656,0.032,1.303,0.094,1.943c-0.409-0.496-0.844-0.977-1.307-1.44C356.977,52.693,344.313,52.693,336.503,60.504    L336.503,60.504z M386,90.001c11.046,0,20,8.954,20,20c0,11.046-8.954,20-20,20c-11.046,0-20-8.954-20-20    C366,98.956,374.954,90.001,386,90.001z"/>
		<circle style="fill-rule:evenodd;clip-rule:evenodd;fill:#F9F9F9;" cx="386" cy="110.001" r="20"/>
		<path style="fill-rule:evenodd;clip-rule:evenodd;fill:#FF836C;" d="M375.498,183.562c-7.81-7.811-20.474-7.811-28.284,0    c-0.464,0.464-0.898,0.944-1.307,1.44c0.062-0.639,0.094-1.287,0.094-1.943c0-11.046-8.954-20-20-20s-20,8.954-20,20    c0,0.656,0.032,1.303,0.094,1.943c-0.409-0.496-0.844-0.977-1.307-1.44c-7.811-7.811-20.474-7.811-28.284,0    c-7.811,7.81-7.811,20.474,0,28.284c0.463,0.463,0.945,0.899,1.44,1.307c-0.639-0.062-1.287-0.094-1.942-0.094    c-11.046,0-20.001,8.954-20,20c0,11.046,8.954,20,20,20c0.655,0,1.303-0.033,1.942-0.094c-0.495,0.408-0.977,0.844-1.44,1.307    c-7.811,7.811-7.811,20.474,0,28.284c7.81,7.811,20.474,7.811,28.284,0c0.464-0.464,0.899-0.945,1.307-1.44    c-0.061,0.639-0.094,1.287-0.094,1.943c0,11.046,8.954,20,20,20c11.046,0,20-8.954,20-20c0-0.655-0.033-1.303-0.094-1.943    c0.408,0.495,0.844,0.977,1.307,1.44c5.388,5.388,13.087,7.059,19.907,5.012c3.066-0.919,5.955-2.59,8.377-5.012    c7.81-7.81,7.81-20.474,0-28.284c-0.464-0.463-0.945-0.899-1.44-1.307c0.639,0.062,1.287,0.094,1.943,0.094    c11.046,0,20-8.954,20-20c0-11.046-8.954-20-20-20c-0.655,0-1.303,0.033-1.943,0.094c0.496-0.408,0.977-0.844,1.44-1.307    C383.309,204.036,383.309,191.372,375.498,183.562L375.498,183.562z M326.001,213.059c11.046,0,20,8.954,20,20    c0,11.046-8.954,20-20,20s-20-8.954-20-20C306.001,222.014,314.955,213.059,326.001,213.059z"/>
		<circle style="fill-rule:evenodd;clip-rule:evenodd;fill:#F9F9F9;" cx="326.001" cy="233.059" r="20"/>
		<path style="fill-rule:evenodd;clip-rule:evenodd;fill:#FFE192;" d="M235.498,211.846c7.811-7.811,7.811-20.474,0-28.284    c-7.81-7.811-20.474-7.811-28.284,0c-0.463,0.464-0.898,0.944-1.307,1.44c0.062-0.639,0.094-1.287,0.094-1.943    c0-11.046-8.954-20-20-20c-11.046,0-20,8.954-20,20c0,0.656,0.032,1.303,0.094,1.943c-0.408-0.496-0.844-0.977-1.307-1.44    c-7.811-7.811-20.474-7.811-28.284,0c-7.811,7.81-7.811,20.474,0,28.284c0.464,0.463,0.945,0.899,1.44,1.307    c-0.639-0.062-1.287-0.094-1.943-0.094c-11.046,0-20,8.954-20,20c0,11.046,8.954,20,20,20c0.655,0,1.303-0.033,1.943-0.094    c-0.496,0.408-0.977,0.844-1.44,1.307c-7.811,7.811-7.811,20.474,0,28.284c2.566,2.566,5.656,4.29,8.927,5.169    c6.682,1.798,14.114,0.075,19.358-5.169c0.463-0.464,0.899-0.945,1.307-1.44c-0.061,0.639-0.094,1.287-0.094,1.943    c0,11.046,8.954,20,20,20c11.046,0,20-8.954,20-20c0-0.655-0.033-1.303-0.094-1.943c0.408,0.495,0.844,0.977,1.307,1.44    c7.811,7.811,20.474,7.811,28.284,0c7.811-7.81,7.811-20.474,0-28.284c-0.464-0.463-0.945-0.899-1.44-1.307    c0.639,0.062,1.287,0.094,1.943,0.094c11.046,0,20-8.954,20-20c0-11.046-8.954-20-20-20c-0.655,0-1.303,0.033-1.943,0.094    C234.554,212.745,235.035,212.31,235.498,211.846L235.498,211.846z M186.001,213.059c11.046,0,20,8.954,20,20    c0,11.046-8.954,20-20,20c-11.046,0-20-8.954-20-20C166.001,222.014,174.955,213.059,186.001,213.059z"/>
		<circle style="fill-rule:evenodd;clip-rule:evenodd;fill:#F9F9F9;" cx="186.001" cy="233.059" r="20"/>
		<path style="fill-rule:evenodd;clip-rule:evenodd;fill:#F9F9F9;" d="M235.498,282.557c-7.81,7.811-20.474,7.811-28.284,0    c-0.463-0.464-0.899-0.945-1.307-1.44c0.061,0.639,0.094,1.287,0.094,1.943c0,11.046-8.954,20-20,20c-11.046,0-20-8.954-20-20    c0-0.655,0.033-1.303,0.094-1.943c-0.408,0.495-0.844,0.977-1.307,1.44c-5.244,5.244-12.676,6.967-19.358,5.169l74.913,129.754    l-26.386,68.051c6.4,10.193,18.229,16.472,31.03,16.472c12.802,0,24.63-6.279,31.031-16.472    c6.4,10.193,18.229,16.472,31.03,16.472c12.801,0,24.63-6.279,31.031-16.472l-26.215-68.051l75.258-129.91    c-6.821,2.046-14.519,0.375-19.908-5.013c-0.464-0.464-0.899-0.945-1.307-1.44c0.061,0.639,0.094,1.287,0.094,1.943    c0,11.046-8.954,20-20,20c-11.046,0-20-8.954-20-20c0-0.655,0.033-1.303,0.094-1.943c-0.409,0.495-0.844,0.977-1.307,1.44    c-7.811,7.811-20.474,7.811-28.284,0c-7.811-7.81-7.811-20.474,0-28.284c0.463-0.463,0.945-0.899,1.44-1.307    c-0.639,0.062-1.287,0.094-1.942,0.094c-11.046,0-20.001-8.954-20-20c0,11.046-8.954,20-20,20c-0.655,0-1.303-0.033-1.943-0.094    c0.495,0.408,0.977,0.844,1.44,1.307C243.309,262.083,243.309,274.746,235.498,282.557z"/>
	</g>
	<g>
		<path d="M256,110c16.542,0,30-13.458,30-30s-13.458-30-30-30s-30,13.458-30,30S239.458,110,256,110z M256,70    c5.514,0,10,4.486,10,10s-4.486,10-10,10s-10-4.486-10-10S250.487,70,256,70z"/>
		<path d="M126.001,140.001c16.542,0,30-13.458,30-30s-13.458-30-30-30s-30,13.458-30,30S109.459,140.001,126.001,140.001z     M126.001,100.001c5.514,0,10,4.486,10,10s-4.486,10-10,10s-10-4.486-10-10S120.488,100.001,126.001,100.001z"/>
		<path d="M386,80.001c-16.542,0-30,13.458-30,30s13.458,30,30,30s30-13.458,30-30S402.542,80.001,386,80.001z M386,120.001    c-5.514,0-10-4.486-10-10s4.486-10,10-10s10,4.486,10,10S391.514,120.001,386,120.001z"/>
		<path d="M466,110.001c0-11.48-6.483-21.476-15.98-26.518c3.15-10.28,0.667-21.933-7.451-30.051    c-8.119-8.119-19.77-10.602-30.051-7.452c-5.042-9.497-15.037-15.979-26.518-15.979s-21.477,6.483-26.518,15.98    c-10.279-3.15-21.934-0.667-30.052,7.451c-1.313,1.313-2.462,2.726-3.48,4.202c-1.795-1.603-3.772-3.005-5.913-4.143    c0.869-2.829,1.319-5.803,1.319-8.847c0-8.014-3.121-15.547-8.787-21.213c-8.119-8.118-19.768-10.6-30.051-7.45    C277.478,6.483,267.482,0,256,0c-11.48,0-21.477,6.483-26.518,15.98c-10.279-3.15-21.933-0.667-30.051,7.452    c-5.666,5.666-8.787,13.2-8.787,21.213c0,3.043,0.45,6.018,1.319,8.847c-2.142,1.138-4.12,2.541-5.915,4.143    c-1.018-1.477-2.167-2.889-3.48-4.202c-5.666-5.667-13.199-8.787-21.213-8.787c-3.043,0-6.018,0.45-8.847,1.318    c-5.044-9.488-15.034-15.963-26.509-15.963c-16.542,0-30,13.458-30,30c0,5.523,4.478,10,10,10s10-4.477,10-10    c0-5.514,4.486-10,10-10s10,4.486,10,10c0,0.324-0.017,0.656-0.048,0.985c-0.421,4.378,2.067,8.517,6.132,10.198    c4.064,1.682,8.75,0.509,11.544-2.887c0.209-0.254,0.429-0.496,0.656-0.723c1.889-1.889,4.399-2.929,7.071-2.929    c2.671,0,5.182,1.04,7.07,2.929c3.899,3.899,3.899,10.243-0.004,14.146c-0.223,0.224-0.465,0.443-0.719,0.652    c-3.396,2.795-4.568,7.48-2.887,11.544c1.681,4.064,5.836,6.546,10.197,6.132c5.94-0.575,10.986,4.114,10.986,9.952    c0,5.514-4.486,10-10,10c-0.321,0-0.652-0.016-0.986-0.048c-4.371-0.429-8.516,2.066-10.196,6.129    c-1.683,4.063-0.513,8.747,2.881,11.543c0.257,0.211,0.5,0.432,0.728,0.66c3.899,3.899,3.899,10.243,0,14.143    c-1.889,1.889-4.399,2.929-7.07,2.929c-2.672,0-5.183-1.04-7.071-2.929c-0.227-0.226-0.448-0.471-0.659-0.727    c-2.795-3.393-7.478-4.563-11.544-2.882c-4.063,1.682-6.55,5.821-6.129,10.198c0.032,0.329,0.048,0.661,0.048,0.984    c0,5.514-4.486,10-10,10s-10-4.486-10-10c0-0.324,0.016-0.655,0.048-0.984c0.421-4.377-2.066-8.516-6.129-10.198    c-4.064-1.683-8.749-0.512-11.544,2.882c-0.209,0.254-0.434,0.501-0.659,0.727c-1.889,1.889-4.399,2.929-7.071,2.929    c-2.671,0-5.182-1.04-7.07-2.929c-3.899-3.899-3.899-10.243,0.004-14.146c0.224-0.225,0.47-0.448,0.73-0.663    c3.39-2.798,4.555-7.481,2.871-11.542s-5.828-6.542-10.196-6.124c-0.332,0.032-0.662,0.048-0.983,0.048c-5.514,0-10-4.486-10-10    s4.486-10,10-10c5.522,0,10-4.477,10-10s-4.478-10-10-10c-16.542,0-30,13.458-30,30c0,11.48,6.483,21.477,15.98,26.518    c-3.15,10.28-0.667,21.932,7.451,30.05c5.666,5.667,13.199,8.787,21.213,8.787c3.043,0,6.018-0.45,8.847-1.319    c4.406,8.289,12.588,14.277,22.236,15.659c-0.709,2.577-1.084,5.263-1.084,8.008c0,3.037,0.448,6.004,1.313,8.828    c-2.608,1.385-5.023,3.167-7.171,5.314c-5.667,5.667-8.787,13.201-8.786,21.212c-0.001,8.014,3.12,15.547,8.786,21.214    c2.147,2.147,4.563,3.929,7.171,5.313c-0.865,2.824-1.313,5.792-1.313,8.828c0,8.014,3.121,15.547,8.787,21.213    c2.715,2.714,5.829,4.784,9.151,6.238l70.705,122.465l-24.653,63.584c-1.143,2.946-0.825,6.258,0.854,8.933    c8.193,13.048,23.328,21.154,39.499,21.154c11.604,0,22.676-4.175,31.03-11.354c8.355,7.179,19.427,11.354,31.03,11.354    c16.171,0,31.307-8.106,39.5-21.154c1.676-2.669,1.995-5.972,0.862-8.913l-24.495-63.585l15.178-26.199    c2.768-4.779,1.138-10.897-3.641-13.666c-4.78-2.769-10.897-1.139-13.666,3.64L286.1,407.479h-59.983l-57.869-100.232    c5.117,3.772,11.278,5.812,17.753,5.811c0.001,0,0,0,0.001,0c8.013,0,15.547-3.121,21.213-8.786    c2.151-2.152,3.937-4.574,5.323-7.188c10.276,3.142,21.919,0.657,30.032-7.457c5.666-5.666,8.787-13.2,8.787-21.213    c0-3.037-0.448-6.004-1.313-8.828c2.135-1.134,4.131-2.547,5.967-4.196c1.805,1.617,3.796,3.031,5.954,4.178    c-0.869,2.829-1.319,5.803-1.319,8.846c0,8.014,3.121,15.547,8.787,21.213c8.114,8.113,19.76,10.598,30.032,7.458    c1.387,2.614,3.171,5.035,5.322,7.187c5.667,5.667,13.201,8.787,21.214,8.787c0.001,0,0,0,0.001,0    c6.793,0,13.237-2.25,18.496-6.386l-3.609,6.23c-2.768,4.779-1.138,10.897,3.641,13.666c1.578,0.915,3.302,1.349,5.003,1.349    c3.451,0,6.809-1.788,8.663-4.989l15.826-27.32c3.097-1.438,5.997-3.431,8.549-5.981c5.666-5.666,8.787-13.2,8.787-21.213    c0-3.043-0.45-6.017-1.319-8.846C399.525,254.524,406,244.533,406,233.06s-6.476-21.464-15.963-26.509    c0.869-2.829,1.319-5.803,1.319-8.846c0-2.745-0.375-5.431-1.084-8.008c9.654-1.383,17.841-7.378,22.245-15.675    c10.281,3.152,21.933,0.666,30.051-7.451c8.118-8.118,10.603-19.769,7.45-30.051C459.518,131.479,466,121.483,466,110.001z     M306.734,483.897c-4.858,5.082-12.035,8.105-19.686,8.105c-9.351,0-17.995-4.518-22.562-11.79    c-1.829-2.914-5.028-4.682-8.469-4.682s-6.64,1.769-8.469,4.682c-4.566,7.272-13.211,11.79-22.562,11.79    c-7.645,0-14.817-3.02-19.676-8.095l21.879-56.427H285L306.734,483.897z M190.022,136.519c2.143-1.138,4.123-2.54,5.919-4.142    c1.027,1.483,2.188,2.889,3.491,4.192c5.666,5.667,13.2,8.788,21.213,8.788c3.044,0,6.018-0.45,8.847-1.319    c3.503,6.59,9.394,11.719,16.509,14.243v22.317c-1.012-1.452-2.153-2.829-3.431-4.106c-8.119-8.118-19.768-10.603-30.051-7.452    c-4.409-8.305-12.606-14.304-22.272-15.679C191.763,147.849,191.699,141.991,190.022,136.519z M266,158.28    c7.115-2.523,13.006-7.653,16.509-14.243c2.829,0.869,5.804,1.319,8.847,1.319c8.014,0,15.548-3.121,21.214-8.787    c1.303-1.303,2.464-2.708,3.491-4.192c1.796,1.603,3.776,3.004,5.919,4.142c-1.677,5.472-1.741,11.33-0.225,16.84    c-9.666,1.375-17.864,7.375-22.272,15.68c-10.279-3.15-21.933-0.667-30.051,7.452c-1.278,1.278-2.419,2.655-3.432,4.108V158.28z     M206.987,70.048c4.371,0.424,8.517-2.067,10.197-6.132c1.682-4.064,0.51-8.75-2.887-11.544c-0.253-0.208-0.494-0.427-0.723-0.656    c-1.889-1.889-2.929-4.4-2.929-7.071c0-2.671,1.04-5.182,2.929-7.071c1.889-1.889,4.399-2.929,7.07-2.929    c2.672,0,5.183,1.04,7.075,2.933c0.225,0.224,0.446,0.469,0.66,0.729c2.8,3.395,7.486,4.558,11.55,2.873    c4.063-1.687,6.546-5.831,6.118-10.208C246.016,30.649,246,30.323,246,30c0-5.514,4.486-10,10-10s10,4.486,10,10    c0,0.324-0.017,0.656-0.048,0.985c-0.421,4.376,2.065,8.513,6.127,10.196c4.06,1.683,8.745,0.515,11.542-2.875    c0.214-0.26,0.438-0.508,0.662-0.732c3.899-3.899,10.244-3.899,14.144,0c1.889,1.889,2.929,4.399,2.929,7.071    c0,2.671-1.04,5.182-2.929,7.071c-0.227,0.227-0.473,0.45-0.73,0.663c-3.393,2.797-4.56,7.481-2.877,11.543    s5.813,6.544,10.197,6.127C310.918,69.476,316,74.162,316,80c0,5.514-4.486,10-10,10c-0.321,0-0.651-0.016-0.983-0.048    c-4.384-0.419-8.514,2.063-10.196,6.124c-1.684,4.061-0.519,8.744,2.871,11.542c0.262,0.216,0.51,0.441,0.735,0.667    c1.889,1.889,2.929,4.4,2.929,7.071c0,2.671-1.04,5.182-2.929,7.071c-1.889,1.889-4.4,2.929-7.071,2.929s-5.183-1.041-7.067-2.926    c-0.231-0.231-0.454-0.477-0.663-0.73c-2.795-3.394-7.479-4.563-11.544-2.882c-4.063,1.682-6.55,5.821-6.129,10.198    c0.032,0.329,0.048,0.66,0.048,0.984c0,5.514-4.486,10-10,10s-10-4.486-10-10c0-0.317,0.017-0.648,0.049-0.984    c0.421-4.375-2.063-8.512-6.124-10.195c-1.241-0.515-2.541-0.763-3.827-0.763c-2.92,0-5.771,1.281-7.714,3.634    c-0.216,0.261-0.439,0.507-0.668,0.736c-1.889,1.889-4.399,2.929-7.071,2.929c-2.671,0-5.182-1.041-7.07-2.93    c-1.889-1.889-2.929-4.399-2.929-7.071c0-2.671,1.04-5.182,2.933-7.075c0.224-0.224,0.467-0.445,0.724-0.656    c3.394-2.796,4.563-7.48,2.881-11.543c-1.682-4.063-5.844-6.546-10.196-6.129c-0.334,0.032-0.665,0.048-0.985,0.048    C200.487,90,196,85.515,196,80C196,74.163,201.017,69.47,206.987,70.048z M243.072,240.13c-2.116,2.116-4.965,3.179-8.055,2.881    c-4.393-0.417-8.515,2.065-10.197,6.127c-1.684,4.062-0.516,8.746,2.877,11.543c0.257,0.212,0.504,0.436,0.73,0.663    c1.889,1.889,2.929,4.4,2.929,7.071c0,2.671-1.04,5.182-2.929,7.071c-1.889,1.889-4.399,2.929-7.07,2.929    c-2.672,0-5.183-1.04-7.075-2.933c-0.227-0.226-0.447-0.469-0.656-0.723c-2.795-3.395-7.48-4.564-11.543-2.882    c-4.063,1.682-6.551,5.82-6.13,10.197c0.032,0.336,0.049,0.668,0.049,0.985c0,2.671-1.04,5.182-2.93,7.071    c-1.889,1.889-4.399,2.929-7.071,2.929c-2.671,0-5.182-1.04-7.07-2.929c-1.89-1.889-2.93-4.4-2.93-7.071    c0-0.317,0.017-0.649,0.049-0.985c0.421-4.375-2.064-8.512-6.124-10.195c-1.242-0.515-2.541-0.763-3.827-0.763    c-2.92,0-5.771,1.281-7.715,3.634c-0.217,0.263-0.439,0.509-0.667,0.736c-3.898,3.901-10.243,3.899-14.142,0    c-1.889-1.889-2.929-4.399-2.929-7.071c0-2.671,1.04-5.182,2.925-7.067c0.23-0.23,0.478-0.454,0.734-0.666    c3.393-2.797,4.56-7.481,2.878-11.542c-1.683-4.062-5.823-6.551-10.196-6.127c-0.334,0.032-0.665,0.048-0.985,0.048    c-2.671,0-5.183-1.041-7.071-2.929s-2.929-4.399-2.929-7.072c0-2.67,1.04-5.182,2.929-7.07c1.889-1.889,4.4-2.929,7.071-2.929    c0.32,0,0.651,0.016,0.985,0.048c4.366,0.418,8.512-2.064,10.194-6.125c1.684-4.061,0.519-8.744-2.871-11.542    c-0.262-0.216-0.51-0.441-0.735-0.667c-1.889-1.889-2.929-4.4-2.929-7.071c0-2.671,1.04-5.182,2.929-7.071    c1.889-1.889,4.399-2.929,7.071-2.929c2.671,0,5.182,1.04,7.074,2.933c0.225,0.225,0.448,0.471,0.663,0.732    c2.802,3.392,7.491,4.555,11.549,2.868c4.062-1.688,6.544-5.831,6.115-10.208c-0.031-0.321-0.047-0.647-0.047-0.97    c0-5.514,4.486-10,10-10c5.515,0,10.001,4.486,10.001,10c0,0.323-0.016,0.649-0.047,0.97c-0.429,4.377,2.054,8.52,6.115,10.208    c4.06,1.688,8.748,0.524,11.548-2.868c0.216-0.261,0.439-0.507,0.668-0.735c3.899-3.899,10.244-3.898,14.142,0    c1.889,1.889,2.929,4.399,2.929,7.071c0,2.671-1.04,5.182-2.925,7.067c-0.229,0.229-0.478,0.454-0.739,0.67    c-3.39,2.798-4.555,7.481-2.871,11.542c1.684,4.061,5.833,6.546,10.196,6.124c3.091-0.301,5.939,0.764,8.055,2.881    c1.889,1.889,2.929,4.4,2.929,7.072C246,235.731,244.96,238.242,243.072,240.13z M376,243.06c-0.321,0-0.651-0.016-0.983-0.048    c-4.395-0.417-8.515,2.065-10.197,6.127s-0.516,8.746,2.877,11.543c0.257,0.212,0.504,0.436,0.73,0.663    c1.889,1.889,2.929,4.4,2.929,7.071c0,2.671-1.04,5.182-2.929,7.071c-3.9,3.9-10.244,3.898-14.139,0.004    c-0.23-0.23-0.453-0.476-0.663-0.73c-2.794-3.395-7.481-4.564-11.543-2.882c-4.063,1.682-6.551,5.82-6.13,10.197    c0.031,0.33,0.048,0.661,0.048,0.985c0,2.671-1.04,5.183-2.929,7.071s-4.399,2.929-7.071,2.929c-2.671,0-5.183-1.04-7.071-2.929    s-2.929-4.4-2.929-7.071c0-0.324,0.017-0.656,0.048-0.985c0.421-4.377-2.066-8.516-6.13-10.197    c-1.239-0.513-2.537-0.761-3.821-0.761c-2.924,0-5.779,1.285-7.722,3.643c-0.212,0.257-0.433,0.501-0.659,0.727    c-1.889,1.889-4.399,2.929-7.071,2.929c-2.671,0-5.182-1.04-7.07-2.929c-1.889-1.889-2.929-4.399-2.929-7.071    c0-2.671,1.04-5.182,2.933-7.075c0.225-0.226,0.467-0.445,0.719-0.652c3.396-2.795,4.568-7.48,2.887-11.544    c-1.681-4.065-5.844-6.556-10.197-6.132c-0.334,0.032-0.665,0.048-0.986,0.048c-5.514,0-10-4.486-10-10s4.486-10,10-10    c0.321,0,0.652,0.016,0.986,0.048c4.372,0.426,8.515-2.066,10.196-6.129c1.683-4.063,0.513-8.747-2.881-11.543    c-0.257-0.211-0.5-0.432-0.728-0.66c-1.889-1.889-2.929-4.4-2.929-7.071c0-2.671,1.04-5.182,2.929-7.071    c3.899-3.898,10.244-3.899,14.146,0.003c0.224,0.224,0.444,0.467,0.655,0.723c2.795,3.395,7.479,4.565,11.544,2.882    c4.063-1.682,6.55-5.821,6.129-10.198c-0.032-0.329-0.048-0.661-0.048-0.985c0-5.514,4.486-10,10-10s10,4.486,10,10    c0,0.324-0.016,0.656-0.048,0.985c-0.421,4.375,2.063,8.512,6.124,10.195c4.058,1.685,8.742,0.519,11.542-2.871    c0.216-0.262,0.441-0.511,0.666-0.735c1.889-1.889,4.4-2.929,7.071-2.929s5.183,1.04,7.071,2.929    c1.889,1.889,2.929,4.399,2.929,7.071c0,2.671-1.04,5.182-2.925,7.067c-0.229,0.229-0.478,0.454-0.739,0.67    c-3.39,2.798-4.555,7.481-2.871,11.542c1.685,4.061,5.828,6.546,10.196,6.124c0.332-0.032,0.662-0.048,0.983-0.048    c5.514,0,10,4.486,10,10S381.514,243.06,376,243.06z M436,120.001c-0.32,0-0.651-0.016-0.985-0.048    c-4.379-0.429-8.516,2.066-10.196,6.129c-1.683,4.063-0.513,8.747,2.881,11.543c0.254,0.209,0.5,0.433,0.728,0.66    c3.899,3.899,3.899,10.243,0,14.142c-3.898,3.898-10.243,3.9-14.142,0c-0.227-0.227-0.451-0.474-0.668-0.736    c-2.798-3.389-7.48-4.555-11.541-2.871c-4.061,1.683-6.545,5.82-6.124,10.195c0.032,0.336,0.049,0.667,0.049,0.984    c0,5.514-4.486,10-10,10s-10-4.486-10-10c0-0.324,0.016-0.655,0.048-0.984c0.421-4.377-2.066-8.516-6.129-10.198    c-1.24-0.513-2.538-0.761-3.822-0.761c-2.924,0-5.779,1.285-7.722,3.643c-0.209,0.254-0.434,0.501-0.659,0.727    c-1.889,1.889-4.4,2.929-7.071,2.929s-5.183-1.04-7.071-2.929c-1.889-1.889-2.929-4.4-2.929-7.071c0-2.671,1.04-5.183,2.925-7.068    c0.229-0.229,0.478-0.454,0.739-0.67c3.39-2.798,4.555-7.481,2.871-11.542s-5.829-6.542-10.196-6.124    c-0.332,0.032-0.662,0.048-0.983,0.048c-5.514,0-10-4.486-10-10c0-5.838,5.071-10.525,10.983-9.952    c4.385,0.414,8.515-2.065,10.197-6.126c1.683-4.062,0.516-8.747-2.877-11.543c-0.259-0.213-0.506-0.437-0.73-0.662    c-3.899-3.899-3.899-10.244,0-14.143c1.889-1.889,4.4-2.929,7.071-2.929s5.183,1.04,7.067,2.925    c0.231,0.231,0.453,0.476,0.66,0.727c2.794,3.396,7.479,4.568,11.544,2.887c4.064-1.681,6.553-5.82,6.132-10.198    c-0.031-0.33-0.048-0.661-0.048-0.985c0-5.514,4.486-10,10-10s10,4.486,10,10c0,0.322-0.016,0.649-0.048,0.97    c-0.428,4.378,2.056,8.521,6.118,10.208c4.064,1.688,8.75,0.522,11.55-2.873c0.214-0.259,0.436-0.504,0.664-0.732    c3.899-3.899,10.244-3.898,14.142,0c3.899,3.899,3.899,10.243,0.004,14.139c-0.231,0.23-0.476,0.453-0.727,0.659    c-3.396,2.795-4.568,7.48-2.887,11.544c1.681,4.064,5.839,6.546,10.197,6.132c5.955-0.58,10.986,4.115,10.986,9.952    C446,115.516,441.514,120.001,436,120.001z"/>
		<path d="M186,203.059c-16.542,0-30,13.458-30,30c0,16.542,13.458,30,30,30c16.543,0,30.001-13.458,30.001-30    C216.001,216.517,202.543,203.059,186,203.059z M186,243.06c-5.514,0-10-4.486-10-10s4.486-10,10-10    c5.515,0,10.001,4.486,10.001,10S191.515,243.06,186,243.06z"/>
		<path d="M326,203.059c-16.542,0-30,13.458-30,30c0,16.542,13.458,30,30,30s30-13.458,30-30    C356,216.517,342.542,203.059,326,203.059z M326,243.06c-5.514,0-10-4.486-10-10s4.486-10,10-10s10,4.486,10,10    S331.514,243.06,326,243.06z"/>
		<path d="M76.504,70.504c2.56,0,5.118-0.977,7.071-2.929l0.005-0.005c3.905-3.905,3.902-10.234-0.003-14.139    c-3.905-3.905-10.239-3.902-14.145,0.002c-3.905,3.905-3.905,10.237,0,14.142C71.386,69.527,73.945,70.504,76.504,70.504z"/>
		<path d="M334.731,344.011c-4.706-2.896-10.866-1.425-13.76,3.279c-2.895,4.703-1.428,10.863,3.275,13.757    c1.635,1.006,3.443,1.485,5.231,1.485c3.357,0,6.638-1.691,8.526-4.761l0.004-0.006    C340.903,353.062,339.434,346.905,334.731,344.011z"/>
	</g>
</g>















</svg>
